<?xml version="1.0" encoding="UTF-8" standalone="no"?>
<!DOCTYPE svg PUBLIC "-//W3C//DTD SVG 1.1//EN" "http://www.w3.org/Graphics/SVG/1.1/DTD/svg11.dtd">
<svg width="100%" height="100%" viewBox="0 0 612 612" version="1.1" xmlns="http://www.w3.org/2000/svg" xmlns:xlink="http://www.w3.org/1999/xlink" xml:space="preserve" xmlns:serif="http://www.serif.com/" style="fill-rule:evenodd;clip-rule:evenodd;stroke-linejoin:round;stroke-miterlimit:2;">
    <g transform="matrix(1.39754,0,0,1.39754,-121.659,-121.64)">
        <path d="M406.44,210.95C386.74,214.39 368.49,223.6 354.02,237.41C339.55,251.22 329.5,269.01 325.14,288.53C320.78,308.05 322.31,328.43 329.53,347.08C336.75,365.73 349.34,381.83 365.71,393.32C382.08,404.82 401.49,411.2 421.49,411.67C441.49,412.13 461.17,406.66 478.06,395.93C494.94,385.21 508.27,369.71 516.35,351.42C524.43,333.12 526.9,312.84 523.45,293.14C518.83,266.73 503.9,243.23 481.96,227.82C460.02,212.4 432.85,206.33 406.44,210.95ZM444.71,366.68C430.46,369.19 415.78,367.41 402.54,361.57C389.3,355.73 378.09,346.1 370.32,333.89C362.56,321.68 358.59,307.44 358.92,292.97C359.25,278.5 363.87,264.46 372.18,252.62C380.49,240.78 392.13,231.67 405.63,226.44C419.12,221.21 433.87,220.11 447.99,223.26C462.11,226.41 474.98,233.69 484.97,244.16C494.96,254.63 501.62,267.83 504.1,282.08C507.44,301.17 503.05,320.81 491.92,336.67C480.78,352.53 463.8,363.33 444.71,366.68Z" style="fill:url(#_Linear1);fill-rule:nonzero;"/>
        <path d="M138.44,324.59C141.06,328.13 145.63,328.68 148.38,324.96L170.83,292.62L197.98,252.3C198.45,251.57 199.09,250.97 199.84,250.55C200.59,250.12 201.44,249.89 202.3,249.86C203.16,249.83 204.02,250.01 204.8,250.38C205.58,250.75 206.26,251.31 206.78,252C212.91,259.87 222.37,272.05 231.69,284.05L252.05,310.3C252.62,311.05 253.38,311.63 254.26,311.99C255.13,312.35 256.08,312.47 257.01,312.34C257.94,312.21 258.83,311.84 259.57,311.26C260.31,310.68 260.89,309.92 261.24,309.04C264.05,302.16 268.32,292.44 274.01,281.52C289.18,252.33 314.33,214.67 347.92,200.18C396.68,179.25 439.24,188.73 466.41,206.31C466.73,206.53 466.96,206.86 467.06,207.24C467.15,207.62 467.1,208.02 466.91,208.36C466.72,208.7 466.41,208.96 466.05,209.09C465.68,209.22 465.28,209.2 464.92,209.04C445.34,199.14 423.1,195.78 401.46,199.45C379.83,203.12 359.94,213.62 344.71,229.42C337.55,236.87 331.29,245.14 326.05,254.04C311.67,278.11 303.71,306.32 297.78,333.18C291.94,361.41 288.02,390 286.06,418.76C285.97,419.89 285.53,420.97 284.8,421.84C284.07,422.71 283.08,423.32 281.98,423.6C280.88,423.87 279.72,423.8 278.66,423.37C277.61,422.95 276.71,422.21 276.1,421.25L242.95,369.43L209.58,317.26C209.1,316.52 208.45,315.9 207.68,315.47C206.91,315.04 206.05,314.8 205.17,314.77C204.29,314.75 203.41,314.94 202.62,315.33C201.83,315.72 201.15,316.3 200.63,317.02C195.16,324.69 185.48,338.26 175.02,353.03C161.19,372.6 146.02,396.51 137.45,409.44C136.87,410.31 136.04,410.99 135.08,411.4C134.12,411.81 133.05,411.93 132.02,411.75C130.99,411.57 130.03,411.08 129.27,410.37C128.51,409.65 127.97,408.73 127.73,407.71C124.06,392.32 117.46,364.86 110.54,339.01C104.27,315.6 94.89,284.34 87.21,259.38C86.92,258.26 87.03,257.07 87.54,256.03C88.04,254.99 88.9,254.16 89.96,253.7C91.02,253.24 92.21,253.17 93.32,253.5C94.43,253.84 95.38,254.56 96,255.53C105.15,271.53 115.13,288.68 122.05,298.99C128.57,308.7 133.65,318.19 138.44,324.59Z" style="fill:url(#_Linear2);fill-rule:nonzero;"/>
    </g>
    <defs>
        <linearGradient id="_Linear1" x1="0" y1="0" x2="1" y2="0" gradientUnits="userSpaceOnUse" gradientTransform="matrix(183.306,85.4705,-85.4705,183.306,332.184,267.83)"><stop offset="0" style="stop-color:rgb(65,187,147);stop-opacity:1"/><stop offset="0.39" style="stop-color:rgb(65,187,147);stop-opacity:1"/><stop offset="0.62" style="stop-color:rgb(57,192,196);stop-opacity:1"/><stop offset="1" style="stop-color:rgb(57,192,196);stop-opacity:1"/></linearGradient>
        <linearGradient id="_Linear2" x1="0" y1="0" x2="1" y2="0" gradientUnits="userSpaceOnUse" gradientTransform="matrix(329.408,113.437,-113.437,329.408,100.023,238.8)"><stop offset="0" style="stop-color:rgb(0,153,205);stop-opacity:1"/><stop offset="0.38" style="stop-color:rgb(57,192,196);stop-opacity:1"/><stop offset="0.61" style="stop-color:rgb(65,187,147);stop-opacity:1"/><stop offset="1" style="stop-color:rgb(65,187,147);stop-opacity:1"/></linearGradient>
    </defs>
</svg>
