<svg width="56" height="30" viewBox="0 0 56 30" fill="none" xmlns="http://www.w3.org/2000/svg">
<path d="M40.3116 2.86606C37.8248 3.30025 35.5225 4.46203 33.6961 6.20449C31.8697 7.94694 30.6012 10.1918 30.051 12.6551C29.5008 15.1184 29.6936 17.6896 30.605 20.0433C31.5165 22.3971 33.1056 24.4277 35.1715 25.8784C37.2373 27.3291 39.6871 28.1347 42.2109 28.1933C44.7347 28.2519 47.2192 27.5608 49.3502 26.2076C51.4812 24.8543 53.1629 22.8996 54.1826 20.5907C55.2024 18.2818 55.5144 15.7224 55.0791 13.2362C54.4956 9.90344 52.6122 6.93882 49.8429 4.99416C47.0737 3.0495 43.6453 2.28403 40.3116 2.86606ZM45.1415 22.5168C43.3428 22.833 41.4907 22.6086 39.8195 21.8721C38.1484 21.1356 36.7333 19.9201 35.7533 18.3792C34.7733 16.8384 34.2725 15.0416 34.3142 13.2161C34.3559 11.3907 34.9383 9.61857 35.9876 8.1241C37.037 6.62964 38.5061 5.47996 40.2092 4.82052C41.9122 4.16109 43.7727 4.02155 45.5551 4.41956C47.3375 4.81756 48.9618 5.73522 50.2224 7.05643C51.483 8.37763 52.3233 10.043 52.637 11.8418C53.0579 14.251 52.5048 16.7288 51.0993 18.7305C49.6938 20.7322 47.5509 22.094 45.1415 22.5168Z" fill="url(#paint0_linear_523_1322)"/>
<path d="M6.48752 17.2058C6.8177 17.6525 7.39481 17.7218 7.74163 17.253L10.5745 13.1724L14.0011 8.08488C14.0603 7.99334 14.1407 7.91745 14.2356 7.86368C14.3304 7.8099 14.4369 7.77983 14.5459 7.77602C14.6548 7.7722 14.7631 7.79476 14.8615 7.84178C14.9599 7.88879 15.0454 7.95886 15.1109 8.04604C15.885 9.03913 17.0781 10.5759 18.2545 12.0906L20.8238 15.4027C20.8961 15.4969 20.9921 15.5703 21.102 15.6155C21.2119 15.6607 21.3318 15.676 21.4495 15.66C21.5672 15.6439 21.6786 15.597 21.7724 15.5241C21.8662 15.4512 21.939 15.3547 21.9835 15.2446C22.3387 14.3763 22.8769 13.1502 23.5956 11.7715C25.51 8.08765 28.6841 3.33576 32.9237 1.50769C39.0777 -1.13317 44.4493 0.0624205 47.8786 2.28163C47.9194 2.30906 47.9485 2.35076 47.9601 2.39853C47.9718 2.44629 47.9651 2.49668 47.9415 2.53978C47.9178 2.58289 47.8789 2.6156 47.8324 2.63148C47.7858 2.64736 47.735 2.64527 47.69 2.62562C45.2184 1.37662 42.4114 0.952409 39.681 1.41521C36.9506 1.87801 34.4404 3.20346 32.5186 5.19713C31.6149 6.1374 30.8244 7.18012 30.163 8.30403C28.3484 11.3416 27.344 14.9006 26.5949 18.2905C25.8574 21.8525 25.3633 25.4606 25.116 29.0897C25.1051 29.2326 25.0494 29.3685 24.9569 29.4779C24.8644 29.5874 24.7398 29.665 24.6007 29.6997C24.4616 29.7344 24.3151 29.7244 24.182 29.6712C24.0489 29.618 23.9359 29.5242 23.8591 29.4032L19.6751 22.8648L15.4633 16.2821C15.4032 16.1882 15.3211 16.1105 15.2241 16.0557C15.1271 16.0009 15.0181 15.9707 14.9067 15.9676C14.7953 15.9646 14.6849 15.9889 14.5851 16.0384C14.4852 16.0879 14.3991 16.1611 14.334 16.2516C13.6432 17.2197 12.4223 18.9313 11.1016 20.7954C9.35644 23.2643 7.44198 26.2824 6.3599 27.9135C6.28646 28.0235 6.18256 28.1096 6.06091 28.1614C5.93927 28.2132 5.80516 28.2284 5.675 28.2051C5.54485 28.1818 5.4243 28.1212 5.32813 28.0304C5.23196 27.9397 5.16433 27.8229 5.13353 27.6944C4.67018 25.7526 3.8378 22.2878 2.96381 19.0256C2.17306 16.0713 0.988315 12.1266 0.019988 8.97811C-0.0170035 8.83683 -0.00233275 8.68698 0.0613594 8.55555C0.125052 8.42412 0.23358 8.31974 0.367407 8.26121C0.501233 8.20267 0.651569 8.19382 0.791341 8.23625C0.931113 8.27868 1.05114 8.36961 1.12982 8.49266C2.28404 10.5121 3.5437 12.6759 4.41769 13.9769C5.24174 15.2002 5.88267 16.3986 6.48752 17.2058Z" fill="url(#paint1_linear_523_1322)"/>
<defs>
<linearGradient id="paint0_linear_523_1322" x1="30.9386" y1="10.0431" x2="54.0692" y2="20.8303" gradientUnits="userSpaceOnUse">
<stop offset="0.39" stop-color="#00CC99"/>
<stop offset="0.62" stop-color="#00CCCC"/>
</linearGradient>
<linearGradient id="paint1_linear_523_1322" x1="1.63757" y1="6.3844" x2="43.21" y2="20.7035" gradientUnits="userSpaceOnUse">
<stop stop-color="#0099CC"/>
<stop offset="0.38" stop-color="#00CCCC"/>
<stop offset="0.61" stop-color="#00CC99"/>
</linearGradient>
</defs>
</svg>
